<svg width="1440" height="800" viewBox="0 0 1440 800" fill="none" xmlns="http://www.w3.org/2000/svg">
  <rect width="1440" height="800" fill="#1A1F2C"/>
  <path fill-rule="evenodd" clip-rule="evenodd" d="M1440 0H0V800H1440V0ZM1323 133H117V266H1323V133ZM1323 266H117V400H1323V266Z" fill="#D30000" fill-opacity="0.1"/>
  <g opacity="0.1">
    <path d="M227 100L252.275 156.59H312.553L263.139 191.41L288.414 247.999L227 213.18L165.586 247.999L190.861 191.41L141.447 156.59H201.725L227 100Z" fill="#FFB800"/>
    <path d="M627 300L652.275 356.59H712.553L663.139 391.41L688.414 447.999L627 413.18L565.586 447.999L590.861 391.41L541.447 356.59H601.725L627 300Z" fill="#FFB800"/>
    <path d="M1127 500L1152.27 556.59H1212.55L1163.14 591.41L1188.41 647.999L1127 613.18L1065.59 647.999L1090.86 591.41L1041.45 556.59H1101.73L1127 500Z" fill="#FFB800"/>
    <path d="M427 620L452.275 676.59H512.553L463.139 711.41L488.414 767.999L427 733.18L365.586 767.999L390.861 711.41L341.447 676.59H401.725L427 620Z" fill="#FFB800"/>
    <path d="M927 120L952.275 176.59H1012.55L963.139 211.41L988.414 267.999L927 233.18L865.586 267.999L890.861 211.41L841.447 176.59H901.725L927 120Z" fill="#FFB800"/>
  </g>
</svg>
