<svg width="120" height="160" viewBox="0 0 120 160" fill="none" xmlns="http://www.w3.org/2000/svg">
  <rect x="35" width="50" height="100" fill="#D30000"/>
  <path d="M60 120C77.6731 120 92 105.673 92 88C92 70.3269 77.6731 56 60 56C42.3269 56 28 70.3269 28 88C28 105.673 42.3269 120 60 120Z" fill="#FFB800" stroke="#D30000" stroke-width="4"/>
  <path d="M60 70L68.78 88.2918L89 91.21L74.5 105.292L77.56 125.5L60 115.833L42.44 125.5L45.5 105.292L31 91.21L51.22 88.2918L60 70Z" fill="#D30000"/>
  <rect x="32.5" y="5" width="10" height="25" fill="#0A2463" stroke="#FFB800" stroke-width="2"/>
  <rect x="77.5" y="5" width="10" height="25" fill="#0A2463" stroke="#FFB800" stroke-width="2"/>
  <rect x="47.5" y="20" width="25" height="10" fill="#FFB800"/>
</svg>
