<svg width="200" height="60" viewBox="0 0 200 60" fill="none" xmlns="http://www.w3.org/2000/svg">
  <path d="M30 10L36.39 23.1459L50 25.105L40 35.1459L42.78 48.75L30 42.4167L17.22 48.75L20 35.1459L10 25.105L23.61 23.1459L30 10Z" fill="#D30000" stroke="#D30000" stroke-width="2" stroke-linecap="round" stroke-linejoin="round"/>
  <path d="M60 22H72.392C75.528 22 77.96 22.532 79.688 23.596C81.432 24.66 82.304 26.396 82.304 28.804C82.304 30.388 81.904 31.684 81.104 32.692C80.32 33.684 79.264 34.348 77.936 34.684V34.876C79.632 35.18 80.912 35.82 81.776 36.796C82.656 37.756 83.096 39.06 83.096 40.708C83.096 43.284 82.16 45.188 80.288 46.42C78.432 47.636 75.864 48.244 72.584 48.244H60V22ZM67.24 32.74H71.912C73.352 32.74 74.416 32.5 75.104 32.02C75.792 31.524 76.136 30.748 76.136 29.692C76.136 28.7 75.768 27.98 75.032 27.532C74.312 27.084 73.168 26.86 71.6 26.86H67.24V32.74ZM67.24 37.54V43.372H72.296C73.736 43.372 74.824 43.092 75.56 42.532C76.312 41.972 76.688 41.124 76.688 39.988C76.688 38.948 76.304 38.156 75.536 37.612C74.784 37.068 73.672 36.796 72.2 36.796H67.24V37.54Z" fill="#1A1F2C"/>
  <path d="M104.5 48.244H90.26V22H104.5C108.884 22 112.204 23.116 114.46 25.348C116.732 27.564 117.868 30.724 117.868 34.828C117.868 38.844 116.732 41.996 114.46 44.26C112.204 46.916 108.884 48.244 104.5 48.244ZM97.5 42.1H103.924C106.244 42.1 108.004 41.444 109.204 40.132C110.42 38.804 111.028 37.028 111.028 34.804C111.028 32.58 110.42 30.812 109.204 29.5C108.004 28.188 106.244 27.532 103.924 27.532H97.5V42.1Z" fill="#1A1F2C"/>
  <path d="M126.51 41.26H138.75V48.244H119.27V22H138.39V28.996H126.51V31.78H137.17V38.404H126.51V41.26Z" fill="#1A1F2C"/>
  <path d="M144.5 22H151.74L161.98 37.108H162.17V22H169.17V48.244H161.98L151.69 33.124H151.5V48.244H144.5V22Z" fill="#1A1F2C"/>
  <path d="M188.5 22C190.532 22 192.332 22.388 193.9 23.164C195.468 23.924 196.688 25.004 197.56 26.404C198.432 27.788 198.868 29.412 198.868 31.276C198.868 33.14 198.432 34.764 197.56 36.148C196.688 37.532 195.468 38.612 193.9 39.388C192.332 40.148 190.532 40.528 188.5 40.528H184.5V48.244H177.26V22H188.5ZM187.652 34.252C189.076 34.252 190.172 33.908 190.94 33.22C191.708 32.532 192.092 31.58 192.092 30.364C192.092 29.148 191.708 28.196 190.94 27.508C190.172 26.82 189.076 26.476 187.652 26.476H184.5V34.252H187.652Z" fill="#1A1F2C"/>
</svg>
